<?xml version='1.0' standalone='no'?>
<svg width='360' height='100' version='1.1' xmlns='http://www.w3.org/2000/svg' contentScriptType='text/javascript'>
<rect width="100%" height="100%" fill="#ffffff"/>

<!-- input feature -->
<text x="8" y="15" font-family="Charis SIL" font-size="12.0">+</text>
<text x="20" y="15" font-family="Charis SIL" font-size="12.0">:</text>
<text x="25" y="15" font-family="Charis SIL" font-size="12.0">NO→N</text>

<text x="10" y="30" font-family="Charis SIL" font-size="12.0">α</text>
<text x="20" y="30" font-family="Charis SIL" font-size="12.0">:</text>
<text x="25" y="30" font-family="Charis SIL" font-size="12.0">OrthPlace</text>

<text x="13" y="45" font-family="Charis SIL" font-size="12.0">-</text>
<text x="20" y="45" font-family="Charis SIL" font-size="12.0">:</text>
<text x="25" y="45" font-family="Charis SIL" font-size="12.0">sonorant</text>

<text x="13" y="60" font-family="Charis SIL" font-size="12.0">-</text>
<text x="20" y="60" font-family="Charis SIL" font-size="12.0">:</text>
<text x="25" y="60" font-family="Charis SIL" font-size="12.0">voice</text>

<!-- left square bracket -->
<line x1="6" y1="3" x2="8" y2="3" stroke="#400040" stroke-width="1.0"/>
<line x1="6" y1="63" x2="8" y2="63" stroke="#400040" stroke-width="1.0"/>
<line x1="6" y1="3" x2="6" y2="63" stroke="#400040" stroke-width="1.0"/>

<!-- right square bracket -->
<line x1="80" y1="3" x2="82" y2="3" stroke="#400040" stroke-width="1.0"/>
<line x1="80" y1="63" x2="82" y2="63" stroke="#400040" stroke-width="1.0"/>
<line x1="82" y1="3" x2="82" y2="63" stroke="#400040" stroke-width="1.0"/>

<text x="89" y="15" font-family="Charis SIL" font-size="12.0" font-weight="bold">→</text>

<!-- output feature -->
<text x="113" y="15" font-family="Charis SIL" font-size="12.0">-</text>
<text x="120" y="15" font-family="Charis SIL" font-size="12.0">:</text>
<text x="125" y="15" font-family="Charis SIL" font-size="12.0">continuant</text>

<text x="113" y="30" font-family="Charis SIL" font-size="12.0">-</text>
<text x="120" y="30" font-family="Charis SIL" font-size="12.0">:</text>
<text x="125" y="30" font-family="Charis SIL" font-size="12.0">NO→N</text>

<text x="108" y="45" font-family="Charis SIL" font-size="12.0">+</text>
<text x="120" y="45" font-family="Charis SIL" font-size="12.0">:</text>
<text x="125" y="45" font-family="Charis SIL" font-size="12.0">nasal</text>

<text x="110" y="60" font-family="Charis SIL" font-size="12.0">α</text>
<text x="120" y="60" font-family="Charis SIL" font-size="12.0">:</text>
<text x="125" y="60" font-family="Charis SIL" font-size="12.0">OrthPlace</text>

<text x="113" y="75" font-family="Charis SIL" font-size="12.0">-</text>
<text x="120" y="75" font-family="Charis SIL" font-size="12.0">:</text>
<text x="125" y="75" font-family="Charis SIL" font-size="12.0">sonorant</text>

<text x="113" y="90" font-family="Charis SIL" font-size="12.0">-</text>
<text x="120" y="90" font-family="Charis SIL" font-size="12.0">:</text>
<text x="125" y="90" font-family="Charis SIL" font-size="12.0">voice</text>

<!-- left square bracket -->
<line x1="106" y1="3" x2="108" y2="3" stroke="#400040" stroke-width="1.0"/>
<line x1="106" y1="93" x2="108" y2="93" stroke="#400040" stroke-width="1.0"/>
<line x1="106" y1="3" x2="106" y2="93" stroke="#400040" stroke-width="1.0"/>

<!-- right square bracket -->
<line x1="184" y1="3" x2="186" y2="3" stroke="#400040" stroke-width="1.0"/>
<line x1="184" y1="93" x2="186" y2="93" stroke="#400040" stroke-width="1.0"/>
<line x1="186" y1="3" x2="186" y2="93" stroke="#400040" stroke-width="1.0"/>

<text x="192" y="15" font-family="Charis SIL" font-size="12.0" font-weight="bold">/</text>

<text x="200" y="15" font-family="Charis SIL" font-size="12.0" fill="#0000ff">e</text>
<text x="210" y="15" font-family="Charis SIL" font-size="12.0" fill="#0000ff">ⁿ</text>

<text x="220" y="15" font-family="Charis SIL" font-size="12.0">+</text>
<text x="230" y="15" font-family="Charis SIL" font-size="12.0">:</text>
<text x="235" y="15" font-family="Charis SIL" font-size="12.0">NO→N</text>

<text x="221" y="30" font-family="Charis SIL" font-size="12.0">α</text>
<text x="230" y="30" font-family="Charis SIL" font-size="12.0">:</text>
<text x="235" y="30" font-family="Charis SIL" font-size="12.0">OrthPlace</text>

<text x="223" y="45" font-family="Charis SIL" font-size="12.0">-</text>
<text x="230" y="45" font-family="Charis SIL" font-size="12.0">:</text>
<text x="235" y="45" font-family="Charis SIL" font-size="12.0">sonorant</text>

<text x="223" y="60" font-family="Charis SIL" font-size="12.0">-</text>
<text x="230" y="60" font-family="Charis SIL" font-size="12.0">:</text>
<text x="235" y="60" font-family="Charis SIL" font-size="12.0">voice</text>

<!-- left square bracket -->
<line x1="218" y1="3" x2="220" y2="3" stroke="#400040" stroke-width="1.0"/>
<line x1="218" y1="63" x2="220" y2="63" stroke="#400040" stroke-width="1.0"/>
<line x1="218" y1="3" x2="218" y2="63" stroke="#400040" stroke-width="1.0"/>

<!-- right square bracket -->
<line x1="290" y1="3" x2="292" y2="3" stroke="#400040" stroke-width="1.0"/>
<line x1="290" y1="63" x2="292" y2="63" stroke="#400040" stroke-width="1.0"/>
<line x1="292" y1="3" x2="292" y2="63" stroke="#400040" stroke-width="1.0"/>

<text x="300" y="15" font-family="Charis SIL" font-size="12.0">[A]</text>
<text x="317" y="10" font-family="Charis SIL" font-size="9.0">∞</text>
<text x="318" y="18" font-family="Charis SIL" font-size="6.0">0</text>

<text x="330" y="15" font-family="Charis SIL" font-size="12.0" fill="#0000ff">-</text>

<text x="340" y="15" font-family="Charis SIL" font-size="12.0">___</text>

</svg>
