<?xml version='1.0' standalone='no'?>
<svg width='298' height='40' version='1.1' xmlns='http://www.w3.org/2000/svg' contentScriptType='text/javascript'>
<rect width="100%" height="100%" fill="#ffffff"/>

<text x="8" y="15" font-family="Charis SIL" font-size="12.0" fill="#0000ff">ⁿ</text>

<text x="23" y="15" font-family="Charis SIL" font-size="12.0" font-weight="bold">→</text>

<!-- output feature -->
<text x="50" y="15" font-family="Charis SIL" font-size="12.0">+</text>
<text x="60" y="15" font-family="Charis SIL" font-size="12.0">:</text>
<text x="65" y="15" font-family="Charis SIL" font-size="12.0">nasal</text>

<text x="50" y="30" font-family="Charis SIL" font-size="12.0">α</text>
<text x="60" y="30" font-family="Charis SIL" font-size="12.0">:</text>
<text x="65" y="30" font-family="Charis SIL" font-size="12.0">OrthPlace</text>

<!-- left square bracket -->
<line x1="46" y1="3" x2="48" y2="3" stroke="#400040" stroke-width="1.0"/>
<line x1="46" y1="33" x2="48" y2="33" stroke="#400040" stroke-width="1.0"/>
<line x1="46" y1="3" x2="46" y2="33" stroke="#400040" stroke-width="1.0"/>

<!-- right square bracket -->
<line x1="119" y1="3" x2="121" y2="3" stroke="#400040" stroke-width="1.0"/>
<line x1="119" y1="33" x2="121" y2="33" stroke="#400040" stroke-width="1.0"/>
<line x1="121" y1="3" x2="121" y2="33" stroke="#400040" stroke-width="1.0"/>

<text x="130" y="15" font-family="Charis SIL" font-size="12.0" font-weight="bold">/</text>

<text x="145" y="15" font-family="Charis SIL" font-size="12.0">[V]</text>

<text x="170" y="15" font-family="Charis SIL" font-size="12.0">___</text>

<text x="190" y="15" font-family="Charis SIL" font-size="12.0">+</text>

<text x="218" y="15" font-family="Charis SIL" font-size="12.0">α</text>
<text x="227" y="15" font-family="Charis SIL" font-size="12.0">:</text>
<text x="232" y="15" font-family="Charis SIL" font-size="12.0">OrthPlace</text>

<text x="219" y="30" font-family="Charis SIL" font-size="12.0">-</text>
<text x="227" y="30" font-family="Charis SIL" font-size="12.0">:</text>
<text x="232" y="30" font-family="Charis SIL" font-size="12.0">sonorant</text>

<!-- left square bracket -->
<line x1="212" y1="3" x2="214" y2="3" stroke="#400040" stroke-width="1.0"/>
<line x1="212" y1="33" x2="214" y2="33" stroke="#400040" stroke-width="1.0"/>
<line x1="212" y1="3" x2="212" y2="33" stroke="#400040" stroke-width="1.0"/>

<!-- right square bracket -->
<line x1="287" y1="3" x2="289" y2="3" stroke="#400040" stroke-width="1.0"/>
<line x1="287" y1="33" x2="289" y2="33" stroke="#400040" stroke-width="1.0"/>
<line x1="289" y1="3" x2="289" y2="33" stroke="#400040" stroke-width="1.0"/>

</svg>
