<?xml version='1.0' standalone='no'?>
<svg width='485' height='130' version='1.1' xmlns='http://www.w3.org/2000/svg' contentScriptType='text/javascript'>
<rect width="100%" height="100%" fill="#ffffff"/>

<text x="8" y="45" font-family="Charis SIL" font-size="12.0">Input</text>
<text x="8" y="100" font-family="Charis SIL" font-size="12.0">Result</text>

<text x="50" y="15" font-family="Charis SIL" font-size="12.0">Left environment</text>
<text x="200" y="15" font-family="Charis SIL" font-size="12.0">Switch these items</text>
<text x="370" y="15" font-family="Charis SIL" font-size="12.0">Right environment</text>

<text x="160" y="60" font-family="Charis SIL" font-size="12.0">[?:consonantal]</text>
<text x="254" y="60" font-family="Charis SIL" font-size="12.0">+</text>

<text x="400" y="60" font-family="Charis SIL" font-size="12.0">[V]</text>

<!-- output feature -->
<text x="270" y="45" font-family="Charis SIL" font-size="12.0">-</text>
<text x="277" y="45" font-family="Charis SIL" font-size="12.0">:</text>
<text x="282" y="45" font-family="Charis SIL" font-size="12.0">sonorant</text>

<text x="266" y="60" font-family="Charis SIL" font-size="12.0">+</text>
<text x="276" y="60" font-family="Charis SIL" font-size="12.0">:</text>
<text x="281" y="60" font-family="Charis SIL" font-size="12.0">consonantal</text>

<!-- left square bracket -->
<line x1="267" y1="36" x2="269" y2="36" stroke="#400040" stroke-width="1.0"/>
<line x1="267" y1="64" x2="269" y2="64" stroke="#400040" stroke-width="1.0"/>
<line x1="267" y1="36" x2="267" y2="64" stroke="#400040" stroke-width="1.0"/>

<!-- right square bracket -->
<line x1="350" y1="36" x2="348" y2="36" stroke="#400040" stroke-width="1.0"/>
<line x1="350" y1="64" x2="348" y2="64" stroke="#400040" stroke-width="1.0"/>
<line x1="350" y1="36" x2="350" y2="64" stroke="#400040" stroke-width="1.0"/>


<text x="164" y="100" font-family="Charis SIL" font-size="12.0">-</text>
<text x="171" y="100" font-family="Charis SIL" font-size="12.0">:</text>
<text x="176" y="100" font-family="Charis SIL" font-size="12.0">sonorant</text>

<text x="162" y="115" font-family="Charis SIL" font-size="12.0">+</text>
<text x="171" y="115" font-family="Charis SIL" font-size="12.0">:</text>
<text x="176" y="115" font-family="Charis SIL" font-size="12.0">consonantal</text>

<text x="254" y="115" font-family="Charis SIL" font-size="12.0">+ [?:consonantal]</text>

<!-- left square bracket -->
<line x1="160" y1="91" x2="162" y2="91" stroke="#400040" stroke-width="1.0"/>
<line x1="160" y1="117" x2="162" y2="117" stroke="#400040" stroke-width="1.0"/>
<line x1="160" y1="91" x2="160" y2="117" stroke="#400040" stroke-width="1.0"/>

<!-- right square bracket -->
<line x1="244" y1="91" x2="242" y2="91" stroke="#400040" stroke-width="1.0"/>
<line x1="244" y1="117" x2="242" y2="117" stroke="#400040" stroke-width="1.0"/>
<line x1="244" y1="91" x2="244" y2="117" stroke="#400040" stroke-width="1.0"/>

<text x="400" y="115" font-family="Charis SIL" font-size="12.0">[V]</text>

<line x1="45" y1="1" x2="45" y2="125" stroke="#d3d3d3" stroke-width="1.0"/>
<line x1="150" y1="1" x2="150" y2="125" stroke="#d3d3d3" stroke-width="1.0"/>
<line x1="251" y1="20" x2="251" y2="125" stroke="#d3d3d3" stroke-width="1.0"/>
<line x1="360" y1="1" x2="360" y2="125" stroke="#d3d3d3" stroke-width="1.0"/>
<line x1="475" y1="1" x2="475" y2="125" stroke="#d3d3d3" stroke-width="1.0"/>

<line x1="1" y1="20" x2="475" y2="20" stroke="#d3d3d3" stroke-width="1.0"/>
<line x1="1" y1="125" x2="475" y2="125" stroke="#d3d3d3" stroke-width="1.0"/>
<line x1="1" y1="75" x2="475" y2="75" stroke="#d3d3d3" stroke-width="1.0"/>

</svg>
